<svg xmlns="http://www.w3.org/2000/svg" viewBox="0 0 323.01 106.84"><title>Coca-Cola logo</title><path d="M360.14,502.61c9.14-17.45,25.26-36.39,44.2-42.7,3.82-1.16,9.14-2.16,12.46.5,3.16,2.33,3.49,6.15,2.82,9.8-.83,4.15-3.66,9.47-8.47,10.3a3.16,3.16,0,0,1-2.16-.83c-1.16-1.16-1.16-3-.83-4.49.66-3.32,3.82-7,7.31-7.48.66-.5.33-1,.17-1.66a2.65,2.65,0,0,0-2-1.5c-3.82-.5-6.65,2-9.47,4-11,9.14-18.94,20.6-25.75,32.23-5.48,10.47-10.3,21.1-11.63,33.23-.66,8.81,2.16,17.45,9.8,21.6,8.31,4.49,19.11,1.5,27.42-.83l7.64-2.49,14.62-4.49c14-4.15,31.4-5.15,45.19.5,8.31,3.49,16.78,8.31,22.1,16.62,0,.17,0,.5-.33.5-11.8-3.32-27.08-6.48-38.55-.83l-.66-.17c-3.49-5.82-9.47-9-15.62-10.14-19.77-2-35.89,7.48-54.33,10-9.3.83-19.44.66-25.92-6.81-10.14-10.63-8.81-29.24-4-41.87C356,511.25,358,506.77,360.14,502.61Z" transform="translate(-350.5 -458.58)" style="fill:#f40000"/><path d="M386.55,507.76c5-9.3,12.46-20.77,22.93-24.26a9,9,0,0,1,8,1.5c4.49,4.65,2.66,12.63,1.16,18.11a1.1,1.1,0,0,0,.66.83c4-.17,7.14-2,10.14-5,6.15-7.14,12.79-16.62,22.93-15.45a6.27,6.27,0,0,1,4.82,3.32c2.49,5.32,0,11-3.49,15.29-1.33,1.33-3,2.33-5,1.66a3.54,3.54,0,0,1-1.66-1.83c-.83-3.66,1.33-7.14,4.15-9,.83-.83,3.32-.33,2.66-2.16-.5-.83-1.33-.83-2.16-1-5,2.16-8.14,7.31-11,11.63a71.73,71.73,0,0,0-8.31,18.61c-.5,2.33-1.16,5.48.17,7.64a3.86,3.86,0,0,0,4.32,1.5c4.82-2,9.14-6,12.79-10.3,8.47-10.63,13-23.59,24.42-32.23,3.66-2.49,8.47-4.49,12.79-2.16.83.33,1.16,1.16,2.16,1,.83-.83,1.16-2.16,2.49-1.83,3.16,0,6.81-.17,10,.17l.17.33-.83,2.33-17.61,37.22a4.13,4.13,0,0,0-.17,1.33,1,1,0,0,0,1.33.33c2.49-1.5,4.49-4.32,6.31-6.65a36.14,36.14,0,0,0,4-7c.5-.83,1-1.5,2-1.33s2.33-.33,3,.5a54.83,54.83,0,0,1-4.49,8.81c-4.82,7.64-11.13,16.62-19.94,18.78-1.5.17-3.32.33-4.32-.83-1.66-1.33-1.83-3.49-2.33-5.48a.73.73,0,0,0-.83-.17c-3.82,3.66-7.64,7-12.79,6.31a5.47,5.47,0,0,1-3.82-3.32c-1.33-2.82-.83-6.15-.83-9.3-.17-.33-.66-.17-.83-.17-5.65,6-12,11.13-19.61,12.63a9.56,9.56,0,0,1-9-3.32c-5.65-7.81-1.16-17.94,1.83-25.42a.67.67,0,0,0-.33-1c-2.16.17-4,.5-6,.83l-.83.83c-4.65,8.81-9.64,18.28-17.94,25.09-3.49,2.66-8.47,4.32-12.63,2-4.15-3-4.65-8.31-4-13.29A73.69,73.69,0,0,1,386.55,507.76Zm13.29-.33c-2.33,5.15-5,10.3-5,16.12.33,1.16.83,2.49,2.16,2.82s2.33-.33,3.32-1.16c4.82-4.15,8.14-9.8,10.8-15.29.17-.5.66-1.16.33-1.66a23.41,23.41,0,0,1-7.81-5.82l-.5-.17a1.36,1.36,0,0,0-.83.83Zm7.31-10.3c.17,2.66,2.49,5,4.82,6,.66.17,1.5.66,2-.17a30.34,30.34,0,0,0,1.83-5.48c.5-2.49.83-5.82-1.5-7.31a3,3,0,0,0-2.66-.17A7.86,7.86,0,0,0,407.16,497.13Zm58.15,20.77c-.66,2.16-1.66,4.65-.83,7.14.17.5.83.83,1.16,1,2,0,3.32-1.66,4.49-3.32,5.65-8.14,10-16.95,14-25.75.66-1.83,1.66-3.66,1.66-5.82,0-.5-.5-.83-.83-1-.83-.5-1.66.17-2.33.66-7.64,6-11.63,14.79-15.62,23.1Z" transform="translate(-350.5 -458.58)" style="fill:#f40000"/><path d="M502,496.3a110.08,110.08,0,0,1,4.82-10c.83-.83,2.16-.83,3-1l8,.17.33.33q-2,5-4.49,10a3.82,3.82,0,0,1-2.16,1.83,93.22,93.22,0,0,1-9.64,0C501.7,497,502,496.63,502,496.3Z" transform="translate(-350.5 -458.58)" style="fill:#f40000"/><path d="M511.34,513.25c5.82-12.13,12.79-23.93,22.76-34.23,9.64-9.64,20.1-17.61,32.57-19.94,3.32-.5,7.31-.17,10,2.16a1.84,1.84,0,0,0,1.83.66c9-3.66,21.6-5,30.74-.33,5.32,2.49,10.14,6,15.29,9.14.66.33.33,1,0,1.33-3,3.32-5.32,6.48-8,10-.33.33-.66.17-1,0l-13.29-9.3c-6.15-4.32-13.46-7.31-21.43-6-.83.5-.5,1.66-.66,2.33.17,8.31-2.82,15.62-6.81,22.43-3.32,4.65-7,9.47-12.46,11a5.81,5.81,0,0,1-6-2.16c-4-6.15-.5-13.62,2.49-18.94a52.23,52.23,0,0,1,14-15.62c.17-.17.5-.5.17-.66-.66-.66-1.5-.17-2.16-.17-9,3-16.28,11.13-22.93,18.78-12,14.79-20.94,30.9-26.09,48.68-1.66,6.48-3.66,16.78,3,21.43,6,3.16,11.46-.83,16-4.82A46.9,46.9,0,0,0,552.38,525c.33-2.66,1-6.48-1.5-8.14-2.16-1-4,.83-5.48,2.33-3.32,4.15-4.82,9.3-5.48,14.62a52,52,0,0,1-5,3.32,48.76,48.76,0,0,0-8.64,8c-.33.17-.33-.33-.5-.5-.33-10,3.16-18.44,8.64-26.09,4.32-5.15,10-9.47,16.62-7.81,3,.66,4.82,3.82,5.48,6.65,1,9.47-2.82,17.45-7,25.09-6.81,10.8-17.45,21.43-30.9,20.1a14.59,14.59,0,0,1-12.13-8.81c-5-10.3-1.66-23.43,2-33.4ZM557,495.63a3.37,3.37,0,0,0,1.83,2.82c2.16.66,4.15-1,5.82-2.33,6-6.48,10-14.12,10.8-22.76,0-1.33.5-3-.33-4-.5-.17-1,.17-1.5.5a42.36,42.36,0,0,0-10.8,11C560,485.33,557.36,489.82,557,495.63Z" transform="translate(-350.5 -458.58)" style="fill:#f40000"/><path d="M564.17,524.38c4.82-6.65,11.46-13.79,19.77-14.12a6,6,0,0,1,5.15,2.66c3.49,5.15.66,12-.66,17.28-.17.5.17.66.66.83a9.09,9.09,0,0,0,5.15-.66l.66-.66c6-17.11,14.79-32.9,25.26-48,6.48-8.64,15-17.78,24.59-21.93,2.33-.66,5.65-1.83,7.81,0,2.49,2.16,1.83,5.48,1.16,8.14-.33,2.33-3,2.66-4.65,3.16-.17,0-.17,0-.33-.17,0-1.5.83-2.82,1.16-4.49a3.24,3.24,0,0,0-.17-2.16c-.5-.66-1.33-.5-2-.33-3.32,1.66-6,4.65-8.47,7.48-9.3,11.13-16.12,23.1-22.6,35.56-2.16,4.32-4.15,8.47-6,13,0,.33,0,.5.33.66,1.5,0,2.33-1.5,3.49-2.16,8.31-7.64,15-16.28,21.27-25.09a9.83,9.83,0,0,1,4.49-.66l.33.17c-.17,1.16-1.16,2.16-1.66,3.16-7,10-14.79,19.77-24.42,28.41l-7,5.65c-1.5,1.33-1.5,3.32-2.16,5-1.33,4.49-2.66,9-2.82,13.79a2.92,2.92,0,0,0,1,2.16c1.83.66,3.32-.83,4.65-2.16,9.3-11,13.46-24.26,24.92-34.06,3.66-3,8.81-5.48,13.46-3.32.83.33,1.5,1.5,2.49.83.66-.5.66-1.66,1.83-1.66,3.49,0,7-.17,10.3.17.33.33.17.66,0,1l-2.33,4.82-14.46,29.08a9.66,9.66,0,0,0-1.5,4.15c.17.66.83.66,1.5.66a19.62,19.62,0,0,0,6.31-6.48c1.83-2.49,3.16-5.15,4.82-7.64a5.08,5.08,0,0,1,3.16-.17c.66.66-.17,1.33-.33,2-4.15,8.81-10.14,18.44-19.27,23.1-2.16,1-5,2.16-7.48.66-2-1.33-1.66-3.66-2.49-5.48-.17-.33-.66-.17-.66-.17-3.82,3.49-7.81,7.31-13.29,5.82-3.32-1.5-3.66-5.32-4-8.64-.17-.17-.17-.5-.33-.5l-.5.17c-3.66,4.49-8.47,10.14-14.62,9.64-2.33-.17-4.49-2.49-5.15-4.65-2.16-7,.17-14.62,1.66-21.43a.7.7,0,0,0-.66-.66h-5.15l-.83,1c-3.82,7.64-8.14,15-14.79,21.43-3.49,3.16-7.81,5.65-12.63,4.32-4-1.83-5-6.15-5-10.14C553.87,541.49,558.53,532.85,564.17,524.38Zm1.5,23.26c.17,1.5.66,3,2.16,3.49a4.61,4.61,0,0,0,3-.5c4.82-3.66,7.81-9.3,10.47-14.46.33-.5.5-1.33-.17-1.66A31.54,31.54,0,0,1,574,529a.78.78,0,0,0-1-.17,37.07,37.07,0,0,0-4.32,8C567.33,540.16,565.67,543.65,565.67,547.64ZM578,523.55a7,7,0,0,0,4.65,6c.5.17,1.33.5,1.66-.17,1.5-3.32,2.82-7.14,2.16-11.13a3.64,3.64,0,0,0-2-2.16,3,3,0,0,0-2.66.5A8.41,8.41,0,0,0,578,523.55Zm46.86,23.1c-.17,1.16-.5,2.82.66,3.66a1.77,1.77,0,0,0,2,.33c2.49-1.33,4.15-4,5.65-6.31a150.06,150.06,0,0,0,12.46-25.42c.17-.66.33-1.83-.5-2.33-2.16-1-3.66,1.33-5.15,2.33-6.81,6.65-10.47,15.12-13.79,23.26Z" transform="translate(-350.5 -458.58)" style="fill:#f40000"/><path d="M636.45,482.51l4.49-6,.66-.66c12.79-.33,22.93-8,31.9-17.28a11,11,0,0,1-1,3.66c-6,14.29-20.27,26.75-35.89,27.08H633c-.66-.17-.17-.83,0-1.16Z" transform="translate(-350.5 -458.58)" style="fill:#f40000"/></svg>